<mxfile host="app.diagrams.net" modified="2024-06-12T12:32:56.858Z" agent="Mozilla/5.0 (Windows NT 10.0; Win64; x64; rv:126.0) Gecko/20100101 Firefox/126.0" version="24.5.3" etag="HIqmwJPYQJkSIej9I1T9" type="github">
  <diagram name="Сторінка-1" id="iaAE1XWNEZHZiI2GJvw2">
    <mxGraphModel>
      <root>
        <mxCell id="0" />
        <mxCell id="1" parent="0" />
      </root>
    </mxGraphModel>
  </diagram>
</mxfile>
